<svg id="svg" version="1.1" xmlns="http://www.w3.org/2000/svg" xmlns:xlink="http://www.w3.org/1999/xlink" width="400" height="400" viewBox="0, 0, 400,400"><g id="svgg"><path id="path0" d="M249.167 75.191 C 241.757 75.651,232.723 77.186,226.583 79.030 C 222.993 80.108,220.961 80.799,218.750 81.696 C 216.855 82.465,212.418 84.648,211.333 85.346 C 210.921 85.611,210.471 85.880,210.333 85.944 C 210.045 86.078,208.791 86.872,208.667 86.999 C 208.578 87.090,206.801 88.304,206.348 88.583 C 205.848 88.892,204.750 89.749,204.694 89.875 C 204.664 89.944,204.558 90.000,204.458 90.000 C 204.359 90.000,204.159 90.114,204.014 90.253 C 203.869 90.392,203.112 91.013,202.333 91.633 C 200.822 92.834,200.291 93.293,198.430 94.998 C 194.930 98.204,191.905 101.645,190.504 104.013 C 190.364 104.249,189.966 104.924,189.618 105.513 C 189.271 106.102,188.896 106.729,188.785 106.907 C 188.674 107.085,188.335 107.632,188.031 108.123 L 187.479 109.016 183.448 108.883 C 171.735 108.496,163.828 109.144,157.488 111.011 C 156.886 111.188,156.285 111.333,156.153 111.333 C 155.874 111.333,151.694 112.680,150.833 113.047 C 150.512 113.184,149.837 113.466,149.333 113.674 C 148.096 114.184,144.243 116.079,143.417 116.584 C 143.050 116.809,142.487 117.146,142.167 117.334 C 141.846 117.522,141.386 117.805,141.144 117.963 C 140.903 118.121,140.397 118.433,140.019 118.656 C 139.642 118.879,139.333 119.123,139.333 119.197 C 139.333 119.272,139.262 119.333,139.174 119.333 C 138.971 119.333,136.768 120.972,136.694 121.178 C 136.664 121.264,136.536 121.333,136.411 121.333 C 136.286 121.333,136.123 121.429,136.050 121.547 C 135.977 121.664,135.242 122.333,134.417 123.032 C 132.694 124.493,130.154 127.052,128.741 128.750 C 128.207 129.392,127.690 130.008,127.593 130.119 C 127.128 130.653,125.453 132.848,125.250 133.190 C 125.158 133.344,124.840 133.819,124.542 134.244 C 124.244 134.669,124.000 135.054,124.000 135.099 C 124.000 135.144,123.924 135.271,123.831 135.382 C 123.531 135.739,122.926 136.716,122.107 138.167 C 121.667 138.946,121.239 139.696,121.156 139.833 C 120.746 140.515,118.970 144.297,118.339 145.833 C 118.132 146.337,117.862 146.989,117.739 147.282 C 115.117 153.505,112.938 164.275,112.708 172.138 C 112.613 175.420,112.832 175.012,110.833 175.627 C 109.283 176.104,107.080 176.585,104.583 176.992 C 95.122 178.532,92.730 179.156,88.750 181.120 C 87.485 181.745,85.434 182.996,85.361 183.188 C 85.331 183.268,85.241 183.333,85.161 183.333 C 85.082 183.333,84.668 183.577,84.241 183.875 C 83.815 184.173,83.346 184.492,83.200 184.583 C 82.955 184.736,78.366 188.171,77.867 188.575 C 77.748 188.671,77.523 188.868,77.367 189.013 C 77.211 189.158,76.108 190.054,74.917 191.004 C 73.725 191.954,72.712 192.775,72.667 192.827 C 72.621 192.879,72.171 193.257,71.667 193.667 C 71.162 194.077,70.712 194.455,70.667 194.508 C 70.458 194.746,65.412 198.722,63.917 199.825 C 63.000 200.502,61.989 201.249,61.669 201.486 C 61.350 201.723,60.963 201.992,60.809 202.083 C 60.655 202.175,60.181 202.494,59.756 202.792 C 59.331 203.090,58.951 203.333,58.912 203.333 C 58.872 203.333,58.407 203.612,57.878 203.954 C 56.715 204.704,56.442 204.854,54.000 206.087 C 45.614 210.320,36.867 210.824,29.000 207.527 C 27.483 206.891,24.340 205.369,23.308 204.770 C 22.973 204.576,22.347 204.211,21.915 203.960 C 21.187 203.536,18.953 202.527,16.583 201.553 C 13.135 200.134,11.895 199.415,10.816 198.206 C 10.088 197.390,10.071 197.381,8.250 197.007 C 7.242 196.800,5.770 196.488,4.979 196.315 C 2.857 195.850,2.824 195.856,2.915 196.708 C 2.956 197.098,3.074 198.392,3.178 199.583 C 3.463 202.866,4.482 207.257,5.688 210.397 C 5.859 210.845,6.000 211.312,6.000 211.434 C 6.000 211.557,6.142 211.979,6.315 212.371 C 6.488 212.763,6.795 213.533,6.997 214.083 C 7.321 214.968,7.912 216.442,8.334 217.417 C 10.611 222.674,10.385 222.188,15.122 232.000 C 19.761 241.611,22.641 247.139,25.367 251.667 C 25.560 251.987,25.802 252.400,25.903 252.583 C 26.059 252.864,26.491 253.563,27.417 255.034 C 27.508 255.180,27.827 255.648,28.125 256.075 C 28.423 256.501,28.667 256.887,28.667 256.932 C 28.667 256.977,28.953 257.405,29.303 257.882 C 29.653 258.359,29.992 258.862,30.056 259.000 C 30.120 259.137,30.490 259.671,30.878 260.186 C 31.266 260.702,32.069 261.770,32.663 262.561 C 33.256 263.353,33.800 264.000,33.871 264.000 C 33.942 264.000,34.000 264.109,34.000 264.242 C 34.000 264.375,34.094 264.543,34.209 264.617 C 34.324 264.690,34.977 265.425,35.661 266.250 C 37.378 268.323,39.932 270.992,42.689 273.595 C 44.441 275.249,48.921 278.736,50.814 279.918 C 50.962 280.011,51.496 280.353,52.000 280.679 C 52.504 281.004,53.029 281.320,53.167 281.382 C 53.304 281.443,53.717 281.678,54.083 281.904 C 55.749 282.930,60.704 285.269,62.750 285.993 C 68.154 287.907,71.691 288.759,77.750 289.607 C 80.780 290.031,90.597 290.121,93.833 289.755 C 95.162 289.604,96.962 289.411,97.833 289.325 C 98.704 289.240,99.979 289.060,100.667 288.926 C 101.354 288.792,102.284 288.660,102.732 288.633 L 103.548 288.583 103.798 289.333 C 104.279 290.775,104.703 291.925,105.120 292.917 C 105.735 294.379,107.491 297.874,107.765 298.180 C 107.894 298.325,108.000 298.497,108.000 298.562 C 108.000 298.736,109.700 301.240,109.862 301.306 C 109.938 301.336,110.000 301.431,110.000 301.517 C 110.000 301.646,111.527 303.715,111.832 304.000 C 111.881 304.046,112.255 304.496,112.662 305.000 C 113.533 306.077,117.270 309.826,118.311 310.667 C 118.709 310.987,119.157 311.368,119.309 311.512 C 119.694 311.880,122.813 314.223,123.417 314.598 C 123.692 314.769,123.954 314.949,124.000 314.998 C 124.119 315.124,125.368 315.918,125.667 316.056 C 125.804 316.120,126.254 316.391,126.667 316.659 C 128.227 317.673,133.053 320.088,134.864 320.761 C 148.894 325.976,161.626 326.437,174.667 322.203 C 179.404 320.665,185.224 317.977,189.583 315.314 C 189.858 315.146,190.346 314.856,190.667 314.669 C 191.329 314.284,191.383 314.250,193.326 313.001 C 194.109 312.498,194.876 312.010,195.031 311.918 C 195.310 311.751,198.236 309.753,199.667 308.752 C 200.079 308.464,201.054 307.786,201.833 307.245 C 202.612 306.705,203.287 306.223,203.333 306.173 C 203.379 306.124,203.539 306.008,203.689 305.917 C 204.276 305.557,205.921 304.422,206.000 304.322 C 206.497 303.692,206.858 303.865,208.750 305.635 C 211.757 308.450,218.444 312.940,222.333 314.756 C 222.838 314.992,223.662 315.379,224.167 315.618 C 225.537 316.266,226.309 316.597,227.417 317.010 C 227.967 317.215,228.735 317.522,229.123 317.692 C 229.512 317.861,229.933 318.000,230.059 318.000 C 230.186 318.000,230.655 318.141,231.103 318.313 C 232.498 318.850,236.056 319.835,238.333 320.315 C 246.487 322.034,255.993 322.035,265.417 320.318 C 269.440 319.585,273.219 318.561,278.333 316.820 C 279.267 316.502,281.859 315.475,283.000 314.972 C 284.624 314.255,285.147 314.011,286.833 313.186 C 289.322 311.969,291.733 310.643,292.967 309.815 C 293.361 309.550,293.719 309.333,293.762 309.333 C 293.847 309.333,295.198 308.474,295.333 308.333 C 295.379 308.286,295.717 308.052,296.083 307.815 C 299.903 305.340,308.072 297.854,308.642 296.306 C 308.675 296.219,308.866 295.968,309.068 295.751 C 309.520 295.264,311.498 292.316,312.146 291.167 C 312.565 290.421,314.000 287.510,314.000 287.404 C 314.000 287.347,314.109 287.064,314.241 286.775 C 314.916 285.308,315.902 281.663,316.075 280.000 C 316.286 277.962,315.878 278.168,319.726 278.159 C 329.983 278.135,337.246 277.215,346.167 274.809 C 347.383 274.481,352.674 272.678,353.417 272.339 C 353.600 272.255,354.313 271.947,355.000 271.654 C 358.793 270.041,365.699 266.149,365.972 265.471 C 366.003 265.395,366.101 265.333,366.190 265.333 C 366.280 265.333,366.630 265.122,366.968 264.864 C 367.306 264.606,367.949 264.120,368.396 263.786 C 371.035 261.808,375.047 257.945,377.240 255.269 C 377.740 254.659,378.247 254.052,378.366 253.919 C 379.135 253.066,380.667 251.014,380.667 250.838 C 380.667 250.759,380.729 250.669,380.804 250.639 C 380.938 250.585,383.068 247.431,383.429 246.753 C 383.769 246.113,384.084 245.582,384.271 245.333 C 384.795 244.637,387.537 239.191,388.340 237.250 C 388.416 237.067,388.638 236.542,388.833 236.083 C 389.403 234.742,390.158 232.762,390.978 230.458 C 391.303 229.545,391.722 228.225,392.312 226.250 C 392.504 225.608,392.812 224.600,392.997 224.009 C 393.182 223.419,393.333 222.786,393.333 222.604 C 393.333 222.423,393.478 221.781,393.655 221.178 C 394.192 219.349,394.969 215.665,395.644 211.750 C 396.794 205.075,397.134 199.035,396.762 191.875 C 396.377 184.451,395.793 181.182,393.662 174.500 C 393.501 173.996,393.200 173.021,392.993 172.333 C 392.785 171.646,392.487 170.708,392.328 170.250 C 392.170 169.792,391.811 168.704,391.531 167.833 C 391.250 166.962,390.930 165.987,390.819 165.667 C 390.229 163.968,389.941 163.174,389.653 162.458 C 389.477 162.023,389.190 161.310,389.016 160.875 C 387.435 156.935,385.333 152.737,383.875 150.608 C 383.577 150.173,383.333 149.780,383.333 149.735 C 383.333 149.689,383.033 149.246,382.667 148.750 C 382.300 148.254,382.000 147.809,382.000 147.762 C 382.000 147.556,378.511 143.054,377.406 141.833 C 377.116 141.512,376.512 140.846,376.064 140.351 C 375.175 139.370,372.928 137.115,371.391 135.663 C 370.364 134.693,366.931 131.897,365.262 130.671 C 364.011 129.753,360.486 127.434,359.167 126.662 C 358.846 126.474,358.283 126.145,357.917 125.930 C 357.341 125.593,356.784 125.292,354.708 124.198 C 354.502 124.089,354.183 123.925,354.000 123.833 C 353.817 123.742,353.517 123.592,353.333 123.500 C 353.150 123.408,352.850 123.258,352.667 123.167 C 352.483 123.075,352.202 122.929,352.042 122.841 C 351.525 122.561,348.830 121.333,348.730 121.333 C 348.677 121.333,348.397 121.228,348.109 121.099 C 346.068 120.191,345.605 120.000,345.438 119.999 C 345.335 119.998,345.057 119.897,344.821 119.774 C 342.472 118.548,337.572 118.012,328.667 118.008 C 324.311 118.006,323.537 117.964,321.886 117.644 L 320.022 117.282 319.574 116.266 C 319.120 115.235,319.007 114.966,318.343 113.333 C 318.137 112.829,317.837 112.117,317.676 111.750 C 317.514 111.383,317.228 110.708,317.041 110.250 C 316.853 109.792,316.496 108.929,316.246 108.333 C 315.997 107.737,315.701 107.025,315.588 106.750 C 314.769 104.759,314.272 103.848,312.962 101.941 C 312.687 101.541,311.632 100.141,311.417 99.890 C 311.325 99.784,310.987 99.374,310.667 98.979 C 306.975 94.439,298.684 87.060,293.917 84.071 C 293.642 83.899,293.379 83.716,293.333 83.665 C 293.001 83.295,288.990 81.190,287.000 80.341 C 286.313 80.048,285.514 79.701,285.225 79.571 C 284.936 79.440,284.627 79.333,284.539 79.333 C 284.450 79.333,284.012 79.192,283.564 79.018 C 283.116 78.845,282.225 78.546,281.583 78.354 C 280.942 78.163,279.933 77.854,279.343 77.670 C 278.752 77.485,278.132 77.333,277.964 77.333 C 277.797 77.333,277.117 77.188,276.455 77.010 C 270.431 75.394,258.607 74.606,249.167 75.191 M260.167 86.332 C 278.290 87.238,290.265 93.248,300.024 106.333 C 307.224 115.987,309.245 120.367,309.762 127.435 L 309.873 128.954 315.561 129.048 C 347.897 129.585,365.903 140.058,378.086 165.417 C 391.245 192.808,383.949 236.005,363.417 252.264 C 349.677 263.144,329.662 268.810,315.167 265.924 C 299.830 262.870,291.567 252.645,291.590 236.750 C 291.607 225.077,295.833 214.115,302.299 208.972 C 305.979 206.046,308.688 205.771,316.055 207.577 C 320.201 208.593,323.359 208.920,325.542 208.560 L 326.167 208.456 326.167 205.044 L 326.167 201.632 325.562 200.482 C 322.705 195.044,313.524 193.648,302.083 196.913 C 296.806 198.419,293.697 200.269,289.785 204.232 C 275.431 218.772,274.781 244.208,288.313 261.833 C 292.235 266.942,299.685 272.596,304.561 274.165 L 305.205 274.372 305.093 275.394 C 303.702 287.993,293.249 298.490,275.750 304.860 C 268.894 307.355,263.135 308.810,258.333 309.258 C 250.827 309.958,241.445 308.954,234.083 306.662 C 221.703 302.808,213.389 296.648,212.135 290.399 C 211.904 289.253,211.961 289.277,208.755 288.948 L 206.260 288.692 205.001 289.888 C 179.514 314.080,146.138 319.820,127.559 303.206 C 121.013 297.353,113.052 283.875,111.336 275.739 C 109.108 265.178,112.812 253.302,119.982 248.018 C 122.323 246.293,124.041 245.680,129.667 244.561 C 131.271 244.242,133.633 243.727,134.917 243.416 C 141.681 241.781,150.906 242.025,154.718 243.939 C 158.088 245.631,159.947 248.023,162.405 253.833 C 164.067 257.759,164.842 259.107,166.494 260.940 C 167.002 261.504,167.626 262.277,167.881 262.660 C 168.601 263.738,169.340 263.992,171.750 263.994 C 174.494 263.995,174.252 264.436,174.239 259.464 C 174.212 248.705,170.168 241.343,161.383 236.061 C 149.651 229.006,130.152 229.646,116.381 237.539 C 104.443 244.381,98.437 254.013,98.428 266.333 C 98.425 270.864,98.489 271.431,99.454 275.396 C 100.020 277.722,99.880 277.824,95.414 278.351 C 90.029 278.986,75.207 277.518,69.068 275.741 C 50.833 270.465,35.910 252.909,24.095 222.833 C 23.393 221.046,22.671 219.215,22.491 218.766 C 22.311 218.316,22.194 217.917,22.231 217.880 C 22.268 217.843,24.889 218.758,28.057 219.913 C 37.817 223.472,42.253 223.846,49.553 221.729 C 56.115 219.824,60.953 216.790,73.250 206.865 C 82.112 199.712,86.596 196.466,91.223 193.852 C 100.283 188.733,109.603 186.374,120.167 186.528 L 123.083 186.571 125.022 172.994 C 126.089 165.526,127.097 159.004,127.262 158.500 C 134.162 137.465,145.752 125.901,163.833 122.012 C 170.284 120.624,182.604 119.585,182.251 120.458 C 181.857 121.431,180.603 127.032,180.226 129.500 C 176.457 154.182,191.960 173.343,220.333 179.067 C 245.781 184.202,268.104 167.830,264.514 146.667 C 264.165 144.614,263.959 143.786,262.767 139.667 C 262.436 138.521,262.009 137.021,261.819 136.333 C 260.463 131.426,258.905 128.295,256.771 126.188 L 255.865 125.292 254.184 125.631 C 252.283 126.014,251.622 126.419,250.584 127.832 C 248.447 130.744,248.557 133.456,251.104 140.570 C 253.037 145.969,253.285 147.384,252.737 149.884 C 250.964 157.982,246.052 163.896,238.800 166.666 C 233.473 168.700,225.965 167.949,217.167 164.503 C 216.662 164.305,215.987 164.043,215.667 163.921 C 198.430 157.339,191.109 144.823,194.509 127.750 C 195.383 123.359,195.564 122.490,195.862 121.250 C 198.981 108.243,215.481 94.770,234.667 89.564 C 242.163 87.530,248.467 86.490,254.583 86.280 C 255.317 86.254,256.179 86.221,256.500 86.206 C 256.821 86.190,258.471 86.247,260.167 86.332 " stroke="none" fill="#fbfbfb" fill-rule="evenodd"></path><path id="path1" d="M252.417 86.508 C 233.028 87.534,211.897 97.284,201.800 109.864 C 197.994 114.604,196.562 117.751,195.330 124.083 C 195.223 124.633,194.996 125.758,194.827 126.583 C 192.880 136.050,193.813 144.143,197.537 150.076 C 203.050 158.861,217.560 166.621,230.423 167.662 C 239.750 168.418,248.621 162.383,251.732 153.167 C 253.393 148.247,253.303 146.903,250.858 140.136 C 248.671 134.083,248.461 131.519,249.921 128.667 C 250.847 126.857,252.143 125.917,254.272 125.508 L 255.917 125.193 256.723 125.972 C 258.996 128.165,260.523 131.285,262.080 136.917 C 262.333 137.833,262.802 139.483,263.120 140.583 C 264.179 144.237,264.334 144.900,264.666 147.167 C 267.905 169.317,243.936 185.226,217.417 178.528 C 214.431 177.774,213.553 177.516,211.083 176.664 C 187.104 168.392,175.733 149.474,180.732 126.167 C 181.343 123.320,181.631 122.143,181.913 121.343 C 182.053 120.948,182.167 120.559,182.167 120.479 C 182.167 120.294,179.350 120.302,175.917 120.497 C 154.186 121.733,140.597 129.970,132.174 147.011 C 131.521 148.334,130.910 149.553,130.818 149.719 C 130.556 150.192,128.792 154.542,128.153 156.292 C 127.977 156.773,127.685 157.560,127.504 158.042 C 127.181 158.899,126.887 160.571,126.176 165.583 C 125.981 166.958,125.675 169.115,125.494 170.375 C 124.915 174.425,124.508 177.278,124.173 179.625 C 123.994 180.885,123.684 182.979,123.485 184.278 L 123.124 186.640 119.354 186.637 C 102.880 186.623,93.494 190.749,73.439 206.818 C 60.046 217.549,55.541 220.323,48.690 222.062 C 41.524 223.881,37.698 223.509,28.249 220.075 C 25.110 218.934,22.496 218.000,22.441 218.000 C 22.315 218.000,23.757 221.906,24.903 224.667 C 25.112 225.171,25.531 226.183,25.834 226.917 C 36.482 252.687,49.741 268.334,66.333 274.711 C 74.038 277.672,93.077 279.407,98.724 277.663 C 99.542 277.410,99.836 277.246,99.772 277.079 C 98.019 272.513,97.749 263.813,99.188 258.333 C 103.270 242.793,120.025 231.662,140.256 231.051 C 161.639 230.406,176.008 243.458,174.374 262.045 C 174.183 264.223,174.475 263.987,171.905 264.040 C 169.228 264.094,168.473 263.814,167.583 262.435 C 167.281 261.967,166.756 261.321,166.416 261.000 C 165.214 259.862,163.574 257.027,162.415 254.083 C 158.851 245.027,155.422 242.708,145.343 242.540 C 139.833 242.448,139.292 242.510,132.833 243.960 C 131.596 244.238,129.758 244.631,128.750 244.835 C 123.017 245.991,121.057 246.905,118.102 249.794 C 111.964 255.798,109.281 266.945,111.643 276.636 C 113.618 284.740,121.452 297.685,127.749 303.249 C 139.794 313.891,158.736 315.608,177.500 307.759 C 178.004 307.548,178.674 307.272,178.989 307.146 C 181.301 306.220,187.976 302.678,190.500 301.038 C 196.318 297.257,200.909 293.712,204.530 290.202 L 206.144 288.638 208.364 288.836 C 209.584 288.944,210.880 289.083,211.243 289.145 L 211.902 289.257 212.344 290.781 C 214.628 298.660,226.640 305.748,242.333 308.478 C 254.146 310.534,264.379 309.256,277.583 304.077 C 293.759 297.732,303.819 287.298,304.927 275.716 L 305.042 274.514 304.396 274.232 C 294.135 269.749,286.881 262.375,282.361 251.832 C 272.613 229.096,282.104 202.571,302.038 196.841 C 313.808 193.459,323.099 194.989,325.826 200.760 L 326.333 201.834 326.333 205.156 C 326.333 208.971,326.547 208.578,324.381 208.755 C 322.800 208.884,320.022 208.622,318.083 208.160 C 317.350 207.985,315.813 207.619,314.667 207.346 C 308.260 205.820,305.164 206.392,301.510 209.775 C 290.881 219.616,288.183 243.390,296.446 254.399 C 304.043 264.522,317.100 268.577,332.917 265.726 C 345.911 263.383,359.697 256.524,367.250 248.645 C 381.227 234.064,388.023 204.572,382.982 180.368 C 381.356 172.559,378.846 166.251,374.447 158.917 C 361.968 138.113,345.341 129.630,316.167 129.182 L 309.750 129.083 309.558 126.750 C 309.090 121.053,307.349 116.751,303.014 110.583 C 297.264 102.401,293.742 98.563,289.000 95.312 C 279.272 88.642,267.164 85.728,252.417 86.508 " stroke="none" fill="#bc141c" fill-rule="evenodd"></path><path id="path2" d="M253.295 86.454 C 253.594 86.491,254.044 86.490,254.295 86.452 C 254.545 86.414,254.300 86.384,253.750 86.385 C 253.200 86.386,252.995 86.417,253.295 86.454 M259.958 86.454 C 260.256 86.491,260.744 86.491,261.042 86.454 C 261.340 86.417,261.096 86.387,260.500 86.387 C 259.904 86.387,259.660 86.417,259.958 86.454 M294.583 100.000 C 295.128 100.550,295.610 101.000,295.656 101.000 C 295.702 101.000,295.294 100.550,294.750 100.000 C 294.206 99.450,293.723 99.000,293.677 99.000 C 293.631 99.000,294.039 99.450,294.583 100.000 M205.906 105.375 L 205.417 105.917 205.958 105.427 C 206.463 104.971,206.577 104.833,206.448 104.833 C 206.419 104.833,206.175 105.077,205.906 105.375 M176.375 120.453 C 176.627 120.491,177.040 120.491,177.292 120.453 C 177.544 120.415,177.338 120.383,176.833 120.383 C 176.329 120.383,176.123 120.415,176.375 120.453 M309.542 126.417 C 309.544 126.783,309.578 126.914,309.618 126.706 C 309.658 126.499,309.656 126.199,309.615 126.040 C 309.573 125.880,309.540 126.050,309.542 126.417 M312.042 129.124 C 313.027 129.154,314.640 129.154,315.625 129.124 C 316.610 129.095,315.804 129.071,313.833 129.071 C 311.862 129.071,311.056 129.095,312.042 129.124 M141.412 133.708 L 140.250 134.917 141.458 133.754 C 142.581 132.675,142.743 132.500,142.621 132.500 C 142.595 132.500,142.051 133.044,141.412 133.708 M193.731 135.833 C 193.731 136.979,193.758 137.448,193.790 136.875 C 193.823 136.302,193.823 135.365,193.790 134.792 C 193.758 134.219,193.731 134.688,193.731 135.833 M179.561 136.750 C 179.561 137.667,179.589 138.020,179.623 137.536 C 179.657 137.052,179.656 136.302,179.622 135.869 C 179.588 135.437,179.560 135.833,179.561 136.750 M363.750 145.167 C 364.108 145.533,364.438 145.833,364.484 145.833 C 364.530 145.833,364.275 145.533,363.917 145.167 C 363.559 144.800,363.228 144.500,363.182 144.500 C 363.137 144.500,363.392 144.800,363.750 145.167 M364.833 146.219 C 364.833 146.248,365.077 146.491,365.375 146.760 L 365.917 147.250 365.427 146.708 C 364.971 146.203,364.833 146.090,364.833 146.219 M252.887 147.833 C 252.887 148.429,252.917 148.673,252.954 148.375 C 252.991 148.077,252.991 147.590,252.954 147.292 C 252.917 146.994,252.887 147.237,252.887 147.833 M246.577 161.542 L 245.750 162.417 246.625 161.590 C 247.106 161.135,247.500 160.741,247.500 160.715 C 247.500 160.590,247.346 160.729,246.577 161.542 M190.333 164.052 C 190.333 164.081,190.577 164.325,190.875 164.594 L 191.417 165.083 190.927 164.542 C 190.471 164.037,190.333 163.923,190.333 164.052 M230.627 180.118 C 230.834 180.158,231.134 180.156,231.294 180.115 C 231.453 180.073,231.283 180.040,230.917 180.042 C 230.550 180.044,230.420 180.078,230.627 180.118 M117.458 186.618 C 117.665 186.657,118.002 186.657,118.208 186.618 C 118.415 186.578,118.246 186.545,117.833 186.545 C 117.421 186.545,117.252 186.578,117.458 186.618 M120.125 186.618 C 120.331 186.657,120.669 186.657,120.875 186.618 C 121.081 186.578,120.912 186.545,120.500 186.545 C 120.087 186.545,119.919 186.578,120.125 186.618 M312.375 195.115 C 312.535 195.157,312.798 195.157,312.958 195.115 C 313.119 195.073,312.987 195.039,312.667 195.039 C 312.346 195.039,312.215 195.073,312.375 195.115 M314.294 195.118 C 314.501 195.158,314.801 195.156,314.960 195.115 C 315.120 195.073,314.950 195.040,314.583 195.042 C 314.217 195.044,314.086 195.078,314.294 195.118 M300.740 210.375 L 300.250 210.917 300.792 210.427 C 301.297 209.971,301.410 209.833,301.281 209.833 C 301.252 209.833,301.009 210.077,300.740 210.375 M40.625 223.121 C 40.923 223.158,41.410 223.158,41.708 223.121 C 42.006 223.084,41.762 223.053,41.167 223.053 C 40.571 223.053,40.327 223.084,40.625 223.121 M143.125 242.457 C 143.881 242.488,145.119 242.488,145.875 242.457 C 146.631 242.426,146.012 242.401,144.500 242.401 C 142.987 242.401,142.369 242.426,143.125 242.457 M366.740 249.208 L 366.250 249.750 366.792 249.260 C 367.297 248.804,367.410 248.667,367.281 248.667 C 367.252 248.667,367.009 248.910,366.740 249.208 M174.398 259.250 C 174.398 260.442,174.425 260.907,174.457 260.285 C 174.489 259.662,174.489 258.687,174.457 258.118 C 174.424 257.549,174.398 258.058,174.398 259.250 M47.750 262.500 C 48.201 262.958,48.608 263.333,48.654 263.333 C 48.700 263.333,48.368 262.958,47.917 262.500 C 47.465 262.042,47.058 261.667,47.013 261.667 C 46.967 261.667,47.299 262.042,47.750 262.500 M98.212 264.333 C 98.212 264.746,98.245 264.915,98.284 264.708 C 98.324 264.502,98.324 264.165,98.284 263.958 C 98.245 263.752,98.212 263.921,98.212 264.333 M170.625 264.118 C 170.831 264.157,171.169 264.157,171.375 264.118 C 171.581 264.078,171.412 264.045,171.000 264.045 C 170.587 264.045,170.419 264.078,170.625 264.118 M98.214 268.250 C 98.216 268.708,98.248 268.876,98.286 268.623 C 98.325 268.369,98.324 267.994,98.284 267.789 C 98.244 267.584,98.213 267.792,98.214 268.250 M110.723 269.167 C 110.723 269.854,110.752 270.135,110.788 269.792 C 110.824 269.448,110.824 268.885,110.788 268.542 C 110.752 268.198,110.723 268.479,110.723 269.167 M86.125 278.284 C 86.331 278.324,86.669 278.324,86.875 278.284 C 87.081 278.245,86.912 278.212,86.500 278.212 C 86.087 278.212,85.919 278.245,86.125 278.284 M90.458 278.456 C 90.940 278.490,91.727 278.490,92.208 278.456 C 92.690 278.423,92.296 278.395,91.333 278.395 C 90.371 278.395,89.977 278.423,90.458 278.456 M215.667 296.552 C 215.667 296.581,215.910 296.825,216.208 297.094 L 216.750 297.583 216.260 297.042 C 215.804 296.537,215.667 296.423,215.667 296.552 " stroke="none" fill="#d26c70" fill-rule="evenodd"></path><path id="path3" d="M256.375 86.288 C 256.719 86.324,257.281 86.324,257.625 86.288 C 257.969 86.252,257.688 86.223,257.000 86.223 C 256.313 86.223,256.031 86.252,256.375 86.288 M178.875 120.289 C 179.310 120.324,180.023 120.324,180.458 120.289 C 180.894 120.255,180.537 120.227,179.667 120.227 C 178.796 120.227,178.440 120.255,178.875 120.289 M256.500 125.917 C 256.811 126.237,257.103 126.500,257.149 126.500 C 257.195 126.500,256.978 126.237,256.667 125.917 C 256.356 125.596,256.064 125.333,256.018 125.333 C 255.972 125.333,256.189 125.596,256.500 125.917 M309.709 127.917 C 309.711 128.283,309.745 128.414,309.785 128.206 C 309.824 127.999,309.823 127.699,309.781 127.540 C 309.739 127.380,309.707 127.550,309.709 127.917 M317.958 129.118 C 318.165 129.157,318.502 129.157,318.708 129.118 C 318.915 129.078,318.746 129.045,318.333 129.045 C 317.921 129.045,317.752 129.078,317.958 129.118 M249.039 131.667 C 249.039 131.987,249.073 132.119,249.115 131.958 C 249.157 131.798,249.157 131.535,249.115 131.375 C 249.073 131.215,249.039 131.346,249.039 131.667 M249.045 133.167 C 249.045 133.579,249.078 133.748,249.118 133.542 C 249.157 133.335,249.157 132.998,249.118 132.792 C 249.078 132.585,249.045 132.754,249.045 133.167 M179.712 133.833 C 179.712 134.246,179.745 134.415,179.784 134.208 C 179.824 134.002,179.824 133.665,179.784 133.458 C 179.745 133.252,179.712 133.421,179.712 133.833 M179.712 139.667 C 179.712 140.079,179.745 140.248,179.784 140.042 C 179.824 139.835,179.824 139.498,179.784 139.292 C 179.745 139.085,179.712 139.254,179.712 139.667 M264.890 151.083 C 264.891 151.817,264.920 152.096,264.956 151.704 C 264.991 151.312,264.990 150.712,264.954 150.371 C 264.919 150.029,264.890 150.350,264.890 151.083 M230.042 167.782 C 230.202 167.823,230.465 167.823,230.625 167.782 C 230.785 167.740,230.654 167.705,230.333 167.705 C 230.012 167.705,229.881 167.740,230.042 167.782 M324.000 198.417 C 324.311 198.737,324.603 199.000,324.649 199.000 C 324.695 199.000,324.478 198.737,324.167 198.417 C 323.856 198.096,323.564 197.833,323.518 197.833 C 323.472 197.833,323.689 198.096,324.000 198.417 M326.237 205.167 C 326.237 207.046,326.261 207.815,326.291 206.875 C 326.321 205.935,326.321 204.398,326.291 203.458 C 326.261 202.519,326.237 203.287,326.237 205.167 M384.372 204.833 C 384.372 205.154,384.406 205.285,384.448 205.125 C 384.490 204.965,384.490 204.702,384.448 204.542 C 384.406 204.381,384.372 204.512,384.372 204.833 M308.795 206.454 C 309.094 206.491,309.544 206.490,309.795 206.452 C 310.045 206.414,309.800 206.384,309.250 206.385 C 308.700 206.386,308.495 206.417,308.795 206.454 M322.792 208.784 C 322.998 208.824,323.335 208.824,323.542 208.784 C 323.748 208.745,323.579 208.712,323.167 208.712 C 322.754 208.712,322.585 208.745,322.792 208.784 M38.875 222.948 C 39.035 222.990,39.298 222.990,39.458 222.948 C 39.619 222.906,39.487 222.872,39.167 222.872 C 38.846 222.872,38.715 222.906,38.875 222.948 M43.042 222.948 C 43.202 222.990,43.465 222.990,43.625 222.948 C 43.785 222.906,43.654 222.872,43.333 222.872 C 43.012 222.872,42.881 222.906,43.042 222.948 M140.382 231.124 C 141.004 231.156,141.979 231.156,142.549 231.123 C 143.118 231.091,142.608 231.064,141.417 231.065 C 140.225 231.065,139.759 231.092,140.382 231.124 M291.539 233.667 C 291.539 233.987,291.573 234.119,291.615 233.958 C 291.657 233.798,291.657 233.535,291.615 233.375 C 291.573 233.215,291.539 233.346,291.539 233.667 M291.539 240.000 C 291.539 240.321,291.573 240.452,291.615 240.292 C 291.657 240.131,291.657 239.869,291.615 239.708 C 291.573 239.548,291.539 239.679,291.539 240.000 M157.826 246.208 C 158.517 246.944,158.667 247.077,158.667 246.951 C 158.667 246.925,158.310 246.568,157.875 246.160 L 157.083 245.417 157.826 246.208 M299.000 257.583 C 299.498 258.087,299.943 258.500,299.989 258.500 C 300.034 258.500,299.665 258.087,299.167 257.583 C 298.669 257.079,298.224 256.667,298.178 256.667 C 298.132 256.667,298.502 257.079,299.000 257.583 M166.167 260.719 C 166.167 260.748,166.410 260.991,166.708 261.260 L 167.250 261.750 166.760 261.208 C 166.304 260.703,166.167 260.590,166.167 260.719 M174.205 262.333 C 174.205 262.654,174.240 262.785,174.282 262.625 C 174.323 262.465,174.323 262.202,174.282 262.042 C 174.240 261.881,174.205 262.012,174.205 262.333 M291.583 265.667 C 292.128 266.217,292.610 266.667,292.656 266.667 C 292.702 266.667,292.294 266.217,291.750 265.667 C 291.206 265.117,290.723 264.667,290.677 264.667 C 290.631 264.667,291.039 265.117,291.583 265.667 M98.220 266.333 C 98.220 266.929,98.250 267.173,98.287 266.875 C 98.324 266.577,98.324 266.090,98.287 265.792 C 98.250 265.494,98.220 265.737,98.220 266.333 M87.961 278.454 C 88.261 278.491,88.711 278.490,88.961 278.452 C 89.212 278.414,88.967 278.384,88.417 278.385 C 87.867 278.386,87.662 278.417,87.961 278.454 M93.711 278.453 C 93.964 278.491,94.339 278.490,94.544 278.451 C 94.749 278.411,94.542 278.380,94.083 278.381 C 93.625 278.382,93.457 278.415,93.711 278.453 M126.417 302.167 C 126.868 302.625,127.275 303.000,127.321 303.000 C 127.367 303.000,127.035 302.625,126.583 302.167 C 126.132 301.708,125.725 301.333,125.679 301.333 C 125.633 301.333,125.965 301.708,126.417 302.167 M153.963 312.789 C 154.355 312.824,154.955 312.824,155.296 312.788 C 155.637 312.752,155.317 312.723,154.583 312.724 C 153.850 312.724,153.571 312.754,153.963 312.789 " stroke="none" fill="#dc8c8c" fill-rule="evenodd"></path><path id="path4" d="M181.375 120.282 C 181.535 120.323,181.798 120.323,181.958 120.282 C 182.119 120.240,181.987 120.205,181.667 120.205 C 181.346 120.205,181.215 120.240,181.375 120.282 " stroke="none" fill="#dc848c" fill-rule="evenodd"></path></g></svg>
