<svg version="1.2" xmlns="http://www.w3.org/2000/svg" viewBox="0 0 400 300" width="100%" height="80" viewBox="0 0 238.000000 140.000000" aria-label="Akatsuki Inc"><style>.a{fill:#fbfbfb}.b{fill:#bc141c}.c{fill:#d26c70}.d{fill:#dc8c8c}.e{fill:#dc848c}</style><path fill-rule="evenodd" class="a" d="m276.5 27c0.6 0.2 1.3 0.3 1.5 0.3 0.1 0 0.8 0.2 1.3 0.4 0.6 0.2 1.6 0.5 2.3 0.7 0.6 0.1 1.5 0.4 2 0.6 0.4 0.2 0.8 0.3 0.9 0.3 0.1 0 0.4 0.1 0.7 0.3 0.3 0.1 1.1 0.4 1.8 0.7 2 0.9 6 3 6.3 3.4 0.1 0 0.3 0.2 0.6 0.4 4.8 3 13.1 10.3 16.8 14.9 0.3 0.4 0.6 0.8 0.7 0.9 0.2 0.2 1.3 1.6 1.6 2 1.3 1.9 1.8 2.9 2.6 4.8 0.1 0.3 0.4 1 0.6 1.6 0.3 0.6 0.7 1.5 0.8 1.9 0.2 0.5 0.5 1.2 0.7 1.6 0.1 0.3 0.4 1 0.6 1.5 0.7 1.7 0.8 1.9 1.3 3l0.4 1 1.9 0.3c1.6 0.4 2.4 0.4 6.8 0.4 8.9 0 13.8 0.5 16.1 1.8 0.3 0.1 0.5 0.2 0.6 0.2 0.2 0 0.7 0.2 2.7 1.1 0.3 0.1 0.6 0.2 0.6 0.2 0.1 0 2.8 1.3 3.3 1.5 0.2 0.1 0.5 0.3 0.7 0.4 0.2 0.1 0.4 0.2 0.6 0.3 0.2 0.1 0.5 0.2 0.7 0.3 0.2 0.1 0.5 0.3 0.7 0.4 2.1 1.1 2.6 1.4 3.2 1.7 0.4 0.2 0.9 0.6 1.3 0.8 1.3 0.7 4.8 3.1 6.1 4 1.6 1.2 5.1 4 6.1 5 1.5 1.4 3.8 3.7 4.7 4.7 0.4 0.4 1 1.1 1.3 1.4 1.1 1.3 4.6 5.8 4.6 6 0 0 0.3 0.5 0.7 0.9 0.3 0.5 0.6 1 0.6 1 0 0.1 0.3 0.5 0.6 0.9 1.4 2.1 3.5 6.3 5.1 10.3 0.2 0.4 0.5 1.1 0.7 1.6 0.2 0.7 0.5 1.5 1.1 3.2 0.1 0.3 0.4 1.3 0.7 2.1 0.3 0.9 0.7 2 0.8 2.4 0.2 0.5 0.5 1.4 0.7 2.1 0.2 0.7 0.5 1.7 0.7 2.2 2.1 6.7 2.7 10 3.1 17.4 0.3 7.1 0 13.2-1.2 19.9-0.6 3.9-1.4 7.5-1.9 9.4-0.2 0.6-0.4 1.2-0.4 1.4 0 0.2-0.1 0.8-0.3 1.4-0.2 0.6-0.5 1.6-0.7 2.3-0.6 1.9-1 3.2-1.3 4.2-0.8 2.3-1.6 4.2-2.2 5.6-0.2 0.4-0.4 1-0.5 1.2-0.8 1.9-3.5 7.3-4 8-0.2 0.3-0.5 0.8-0.9 1.5-0.3 0.6-2.5 3.8-2.6 3.8-0.1 0.1-0.1 0.2-0.1 0.2 0 0.2-1.6 2.3-2.3 3.1-0.2 0.2-0.7 0.8-1.2 1.4-2.2 2.6-6.2 6.5-8.8 8.5-0.5 0.3-1.1 0.8-1.4 1.1-0.4 0.2-0.7 0.4-0.8 0.4-0.1 0-0.2 0.1-0.2 0.2-0.3 0.6-7.2 4.5-11 6.2-0.7 0.2-1.4 0.6-1.6 0.6-0.7 0.4-6 2.2-7.2 2.5-9 2.4-16.2 3.3-26.5 3.4-3.8 0-3.4-0.2-3.6 1.8-0.2 1.7-1.2 5.3-1.9 6.8-0.1 0.3-0.2 0.5-0.2 0.6 0 0.1-1.4 3-1.9 3.8-0.6 1.1-2.6 4.1-3 4.6-0.2 0.2-0.4 0.4-0.5 0.5-0.5 1.6-8.7 9-12.5 11.5-0.4 0.3-0.7 0.5-0.8 0.5-0.1 0.2-1.5 1-1.5 1-0.1 0-0.4 0.3-0.8 0.5-1.3 0.8-3.7 2.2-6.2 3.4-1.7 0.8-2.2 1.1-3.8 1.8-1.1 0.5-3.7 1.5-4.7 1.8-5.1 1.8-8.9 2.8-12.9 3.5-9.4 1.7-18.9 1.7-27.1 0-2.2-0.5-5.8-1.4-7.2-2-0.4-0.2-0.9-0.3-1-0.3-0.2 0-0.6-0.1-1-0.3-0.4-0.2-1.1-0.5-1.7-0.7-1.1-0.4-1.9-0.7-3.2-1.4-0.5-0.2-1.4-0.6-1.9-0.8-3.9-1.9-10.5-6.4-13.5-9.2-1.9-1.7-2.3-1.9-2.8-1.3-0.1 0.1-1.7 1.3-2.3 1.6-0.2 0.1-0.3 0.2-0.4 0.3 0 0-0.7 0.5-1.5 1-0.7 0.6-1.7 1.3-2.1 1.6-1.5 1-4.4 3-4.7 3.1-0.1 0.1-0.9 0.6-1.7 1.1-1.9 1.3-2 1.3-2.6 1.7-0.4 0.2-0.8 0.4-1.1 0.6-4.4 2.7-10.2 5.4-14.9 6.9-13.1 4.2-25.8 3.8-39.8-1.4-1.8-0.7-6.7-3.1-8.2-4.1-0.4-0.3-0.9-0.6-1-0.6-0.3-0.2-1.6-1-1.7-1.1 0-0.1-0.3-0.2-0.6-0.4-0.6-0.4-3.7-2.7-4.1-3.1-0.1-0.1-0.6-0.5-1-0.8-1-0.9-4.8-4.6-5.6-5.7-0.4-0.5-0.8-1-0.9-1-0.3-0.3-1.8-2.4-1.8-2.5 0-0.1-0.1-0.2-0.1-0.2-0.2-0.1-1.9-2.6-1.9-2.7 0-0.1-0.1-0.3-0.2-0.4-0.3-0.3-2.1-3.8-2.7-5.3-0.4-1-0.8-2.1-1.3-3.6l-0.3-0.7h-0.8c-0.4 0.1-1.3 0.2-2 0.3-0.7 0.2-2 0.3-2.9 0.4-0.8 0.1-2.6 0.3-4 0.5-3.2 0.3-13 0.2-16.1-0.2-6-0.8-9.5-1.7-14.9-3.6-2.1-0.7-7.1-3.1-8.7-4.1-0.4-0.2-0.8-0.5-0.9-0.5-0.2-0.1-0.7-0.4-1.2-0.7-0.5-0.3-1-0.7-1.2-0.8-1.9-1.2-6.4-4.7-8.1-6.3-2.8-2.6-5.3-5.3-7-7.3-0.7-0.9-1.4-1.6-1.5-1.7-0.1-0.1-0.2-0.2-0.2-0.4 0-0.1-0.1-0.2-0.1-0.2-0.1 0-0.6-0.6-1.2-1.4-0.6-0.8-1.4-1.9-1.8-2.4-0.4-0.5-0.8-1.1-0.8-1.2-0.1-0.1-0.4-0.6-0.8-1.1-0.3-0.5-0.6-0.9-0.6-1 0 0-0.3-0.4-0.6-0.8-0.3-0.5-0.6-0.9-0.7-1.1-0.9-1.4-1.3-2.1-1.5-2.4-0.1-0.2-0.3-0.6-0.5-0.9-2.8-4.6-5.6-10.1-10.3-19.7-4.7-9.8-4.5-9.3-6.8-14.6-0.4-1-1-2.4-1.3-3.3-0.2-0.6-0.5-1.3-0.7-1.7-0.2-0.4-0.3-0.8-0.3-1 0-0.1-0.1-0.6-0.3-1-1.2-3.1-2.2-7.5-2.5-10.8-0.1-1.2-0.2-2.5-0.3-2.9-0.1-0.8 0-0.9 2.1-0.4 0.8 0.2 2.2 0.5 3.3 0.7 1.8 0.4 1.8 0.4 2.5 1.2 1.1 1.2 2.3 1.9 5.8 3.4 2.4 0.9 4.6 1.9 5.3 2.4 0.4 0.2 1.1 0.6 1.4 0.8 1 0.6 4.2 2.1 5.7 2.7 7.9 3.3 16.6 2.8 25-1.4 2.4-1.2 2.7-1.4 3.9-2.1 0.5-0.4 1-0.7 1-0.7 0.1 0 0.4-0.2 0.9-0.5 0.4-0.3 0.9-0.6 1-0.7 0.2-0.1 0.6-0.4 0.9-0.6 0.3-0.3 1.3-1 2.2-1.7 1.5-1.1 6.6-5.1 6.8-5.3 0 0 0.5-0.4 1-0.8 0.5-0.4 0.9-0.8 1-0.9 0 0 1-0.8 2.2-1.8 1.2-0.9 2.3-1.8 2.5-2 0.1-0.1 0.3-0.3 0.5-0.4 0.5-0.4 5.1-3.9 5.3-4 0.1-0.1 0.6-0.4 1-0.7 0.5-0.3 0.9-0.6 1-0.6 0 0 0.1 0 0.2-0.1 0-0.2 2.1-1.5 3.4-2.1 3.9-1.9 6.3-2.6 15.8-4.1 2.5-0.4 4.7-0.9 6.2-1.4 2-0.6 1.8-0.2 1.9-3.5 0.2-7.8 2.4-18.6 5-24.8 0.2-0.3 0.4-1 0.6-1.5 0.7-1.5 2.4-5.3 2.9-6 0-0.1 0.5-0.9 0.9-1.6 0.8-1.5 1.4-2.5 1.7-2.8 0.1-0.1 0.2-0.3 0.2-0.3 0 0 0.2-0.4 0.5-0.9 0.3-0.4 0.7-0.9 0.7-1 0.3-0.4 1.9-2.5 2.4-3.1 0.1-0.1 0.6-0.7 1.1-1.4 1.5-1.6 4-4.2 5.7-5.7 0.8-0.7 1.6-1.3 1.7-1.5 0-0.1 0.2-0.2 0.3-0.2 0.1 0 0.3 0 0.3-0.1 0.1-0.2 2.3-1.9 2.5-1.9 0.1 0 0.1 0 0.1-0.1 0-0.1 0.3-0.3 0.7-0.5 0.4-0.3 0.9-0.6 1.1-0.7 0.3-0.2 0.7-0.5 1.1-0.7 0.3-0.2 0.9-0.5 1.2-0.7 0.8-0.5 4.7-2.4 5.9-2.9 0.5-0.2 1.2-0.5 1.5-0.7 0.9-0.3 5.1-1.7 5.4-1.7 0.1 0 0.7-0.1 1.3-0.3 6.3-1.9 14.2-2.5 25.9-2.1l4.1 0.1 0.5-0.9c0.3-0.5 0.7-1 0.8-1.2 0.1-0.2 0.5-0.8 0.8-1.4 0.4-0.6 0.8-1.3 0.9-1.5 1.4-2.4 4.4-5.8 7.9-9 1.9-1.7 2.4-2.2 3.9-3.4 0.8-0.6 1.6-1.2 1.7-1.3 0.2-0.2 0.4-0.3 0.5-0.3 0.1 0 0.2-0.1 0.2-0.1 0.1-0.2 1.1-1 1.6-1.3 0.5-0.3 2.3-1.5 2.4-1.6 0.1-0.1 1.3-0.9 1.6-1.1 0.2 0 0.6-0.3 1-0.6 1.1-0.7 5.6-2.8 7.5-3.6 2.2-0.9 4.2-1.6 7.8-2.7 6.1-1.8 15.2-3.3 22.6-3.8 9.4-0.6 21.2 0.2 27.3 1.8zm-20 9.2c-0.3 0-1.2 0.1-1.9 0.1-6.1 0.2-12.4 1.2-19.9 3.3-19.2 5.2-35.7 18.6-38.8 31.6-0.3 1.3-0.5 2.2-1.4 6.5-3.4 17.1 3.9 29.6 21.2 36.2 0.3 0.1 1 0.4 1.5 0.6 8.8 3.4 16.3 4.2 21.6 2.2 7.3-2.8 12.2-8.7 13.9-16.8 0.6-2.5 0.3-3.9-1.6-9.3-2.5-7.1-2.7-9.9-0.5-12.8 1-1.4 1.7-1.8 3.6-2.2l1.7-0.3 0.9 0.9c2.1 2.1 3.7 5.2 5 10.1 0.2 0.7 0.6 2.2 1 3.4 1.2 4.1 1.4 4.9 1.7 7 3.6 21.1-18.7 37.5-44.2 32.4-28.3-5.8-43.8-24.9-40.1-49.6 0.4-2.5 1.7-8.1 2.1-9 0.3-0.9-12 0.1-18.5 1.5-18 3.9-29.6 15.5-36.5 36.5-0.2 0.5-1.2 7-2.3 14.5l-1.9 13.6-2.9-0.1c-10.6-0.1-19.9 2.2-29 7.4-4.6 2.6-9.1 5.8-18 13-12.2 9.9-17.1 12.9-23.6 14.8-7.3 2.1-11.8 1.8-21.5-1.8-3.2-1.1-5.8-2.1-5.9-2 0 0 0.1 0.4 0.3 0.9 0.2 0.4 0.9 2.2 1.6 4 11.8 30.1 26.7 47.7 45 52.9 6.1 1.8 20.9 3.3 26.3 2.7 4.5-0.6 4.6-0.7 4.1-3-1-4-1.1-4.5-1.1-9.1 0-12.3 6-21.9 18-28.8 13.8-7.9 33.3-8.5 45-1.4 8.8 5.2 12.8 12.6 12.8 23.4 0.1 4.9 0.3 4.5-2.5 4.5-2.4 0-3.1-0.3-3.8-1.3-0.3-0.4-0.9-1.2-1.4-1.8-1.7-1.8-2.4-3.1-4.1-7.1-2.5-5.8-4.3-8.2-7.7-9.9-3.8-1.9-13-2.1-19.8-0.5-1.3 0.3-3.6 0.8-5.2 1.2-5.7 1.1-7.4 1.7-9.7 3.4-7.2 5.3-10.9 17.2-8.7 27.7 1.8 8.2 9.7 21.7 16.3 27.5 18.5 16.6 51.9 10.9 77.4-13.3l1.3-1.2 2.5 0.2c3.2 0.4 3.1 0.4 3.3 1.5 1.3 6.2 9.6 12.4 22 16.3 7.3 2.3 16.7 3.3 24.2 2.6 4.8-0.5 10.6-1.9 17.4-4.4 17.5-6.4 28-16.9 29.4-29.5l0.1-1-0.6-0.2c-4.9-1.6-12.4-7.3-16.3-12.4-13.5-17.6-12.9-43 1.5-57.6 3.9-3.9 7-5.8 12.3-7.3 11.4-3.3 20.6-1.9 23.5 3.6l0.6 1.1v6.9l-0.7 0.1q-3.2 0.5-9.4-1c-7.4-1.8-10.1-1.6-13.8 1.4-6.5 5.1-10.7 16.1-10.7 27.8 0 15.8 8.2 26.1 23.6 29.1 14.5 2.9 34.5-2.8 48.2-13.6 20.5-16.3 27.8-59.5 14.7-86.9-12.2-25.3-30.2-35.8-62.5-36.4h-5.7l-0.1-1.6c-0.6-7-2.6-11.4-9.8-21.1-9.7-13.1-21.7-19.1-39.8-20-1.7-0.1-3.4-0.1-3.7-0.1z"/><path fill-rule="evenodd" class="b" d="m252.4 36.5c-19.4 1-40.5 10.8-50.6 23.4-3.8 4.7-5.2 7.9-6.5 14.2-0.1 0.5-0.3 1.7-0.5 2.5-1.9 9.5-1 17.5 2.7 23.5 5.6 8.8 20.1 16.5 32.9 17.6 9.3 0.7 18.2-5.3 21.3-14.5 1.7-5 1.6-6.3-0.8-13.1-2.2-6-2.4-8.6-1-11.4 0.9-1.8 2.2-2.8 4.4-3.2l1.6-0.3 0.8 0.8c2.3 2.2 3.8 5.3 5.4 10.9 0.2 0.9 0.7 2.6 1 3.7 1.1 3.6 1.2 4.3 1.6 6.6 3.2 22.1-20.8 38-47.3 31.3-3-0.7-3.8-1-6.3-1.8-24-8.3-35.4-27.2-30.4-50.5 0.6-2.9 0.9-4.1 1.2-4.9 0.2-0.4 0.3-0.7 0.3-0.8 0-0.2-2.9-0.2-6.3 0-21.7 1.2-35.3 9.5-43.7 26.5-0.7 1.3-1.3 2.6-1.4 2.7-0.2 0.5-2 4.8-2.6 6.6-0.2 0.5-0.5 1.3-0.7 1.7-0.3 0.9-0.6 2.6-1.3 7.6-0.2 1.4-0.5 3.5-0.7 4.8-0.6 4-1 6.9-1.3 9.2-0.2 1.3-0.5 3.4-0.7 4.7l-0.4 2.3h-3.7c-16.5 0-25.9 4.1-46 20.2-13.4 10.7-17.9 13.5-24.7 15.3-7.2 1.8-11 1.4-20.5-2-3.1-1.2-5.7-2.1-5.8-2.1-0.1 0 1.4 3.9 2.5 6.7 0.2 0.5 0.6 1.5 0.9 2.2 10.7 25.8 23.9 41.4 40.5 47.8 7.7 3 26.8 4.7 32.4 3 0.8-0.3 1.1-0.5 1.1-0.6-1.8-4.6-2.1-13.3-0.6-18.8 4.1-15.5 20.8-26.6 41.1-27.2 21.3-0.7 35.7 12.4 34.1 30.9-0.2 2.2 0.1 2-2.5 2-2.7 0.1-3.4-0.2-4.3-1.6-0.3-0.4-0.8-1.1-1.2-1.4-1.2-1.1-2.8-4-4-6.9-3.5-9.1-7-11.4-17.1-11.6-5.5-0.1-6 0-12.5 1.5-1.2 0.2-3 0.6-4.1 0.8-5.7 1.2-7.6 2.1-10.6 5-6.1 6-8.8 17.1-6.5 26.8 2 8.1 9.9 21.1 16.1 26.6 12.1 10.7 31 12.4 49.8 4.6 0.5-0.3 1.2-0.5 1.5-0.7 2.3-0.9 9-4.4 11.5-6.1 5.8-3.7 10.4-7.3 14-10.8l1.6-1.6 2.3 0.2c1.2 0.1 2.5 0.3 2.8 0.3l0.7 0.2 0.4 1.5c2.3 7.9 14.3 14.9 30 17.7 11.8 2 22.1 0.8 35.3-4.4 16.2-6.4 26.2-16.8 27.3-28.4l0.1-1.2-0.6-0.3c-10.3-4.5-17.5-11.8-22-22.4-9.8-22.7-0.3-49.2 19.6-55 11.8-3.3 21.1-1.8 23.8 4l0.5 1v3.4c0 3.8 0.2 3.4-1.9 3.6-1.6 0.1-4.4-0.2-6.3-0.6-0.7-0.2-2.3-0.6-3.4-0.9-6.4-1.5-9.5-0.9-13.2 2.5-10.6 9.8-13.3 33.6-5.1 44.6 7.6 10.1 20.7 14.2 36.5 11.3 13-2.3 26.8-9.2 34.3-17.1 14-14.5 20.8-44 15.8-68.2-1.6-7.8-4.2-14.1-8.6-21.5-12.4-20.8-29.1-29.3-58.2-29.7l-6.5-0.1-0.1-2.3c-0.5-5.7-2.3-10-6.6-16.2-5.7-8.2-9.3-12-14-15.3-9.7-6.7-21.8-9.6-36.6-8.8z"/><path fill-rule="evenodd" class="c" d="m253.3 36.5c0.3 0 0.7 0 1 0 0.2-0.1 0-0.1-0.6-0.1-0.5 0-0.7 0-0.4 0.1zm6.7 0c0.3 0 0.7 0 1 0 0.3-0.1 0.1-0.1-0.5-0.1-0.6 0-0.8 0-0.5 0.1zm34.6 13.5c0.5 0.5 1 1 1.1 1 0 0-0.4-0.5-1-1-0.5-0.5-1-1-1-1-0.1 0 0.3 0.5 0.9 1zm-88.7 5.4l-0.5 0.5 0.6-0.5c0.5-0.4 0.6-0.6 0.4-0.6 0 0-0.2 0.3-0.5 0.6zm-29.5 15.1c0.2 0 0.6 0 0.9 0 0.2-0.1 0-0.1-0.5-0.1-0.5 0-0.7 0-0.4 0.1zm133.1 5.9c0 0.4 0.1 0.5 0.1 0.3 0.1-0.2 0.1-0.5 0-0.7 0-0.1-0.1 0-0.1 0.4zm2.5 2.7c1 0.1 2.6 0.1 3.6 0 1 0 0.2 0-1.8 0-1.9 0-2.7 0-1.8 0zm-170.6 4.6l-1.2 1.2 1.3-1.1c1.1-1.1 1.2-1.3 1.1-1.3 0 0-0.5 0.5-1.2 1.2zm52.3 2.1c0 1.2 0.1 1.6 0.1 1.1 0-0.6 0-1.5 0-2.1 0-0.6-0.1-0.1-0.1 1zm-14.1 0.9c0 1 0 1.3 0 0.8 0.1-0.4 0.1-1.2 0-1.6 0-0.5 0-0.1 0 0.8zm184.2 8.5c0.3 0.3 0.6 0.6 0.7 0.6 0 0-0.2-0.3-0.6-0.6-0.3-0.4-0.7-0.7-0.7-0.7-0.1 0 0.2 0.3 0.6 0.7zm1 1c0 0 0.3 0.3 0.6 0.6l0.5 0.4-0.5-0.5c-0.4-0.5-0.6-0.6-0.6-0.5zm-111.9 1.6c0 0.6 0 0.9 0.1 0.6 0-0.3 0-0.8 0-1.1-0.1-0.3-0.1-0.1-0.1 0.5zm-6.3 13.7l-0.8 0.9 0.8-0.8c0.5-0.5 0.9-0.9 0.9-0.9 0-0.1-0.2 0-0.9 0.8zm-56.3 2.6c0 0 0.3 0.2 0.6 0.5l0.5 0.5-0.5-0.6c-0.4-0.5-0.6-0.6-0.6-0.4zm40.3 16c0.2 0.1 0.5 0.1 0.7 0 0.2 0 0-0.1-0.4-0.1-0.3 0-0.5 0.1-0.3 0.1zm-113.1 6.5c0.2 0.1 0.5 0.1 0.7 0 0.2 0 0-0.1-0.4-0.1-0.4 0-0.5 0.1-0.3 0.1zm2.6 0c0.2 0.1 0.6 0.1 0.8 0 0.2 0 0-0.1-0.4-0.1-0.4 0-0.6 0.1-0.4 0.1zm192.3 8.5c0.1 0.1 0.4 0.1 0.6 0 0.1 0 0-0.1-0.3-0.1-0.4 0-0.5 0.1-0.3 0.1zm1.9 0c0.2 0.1 0.5 0.1 0.7 0 0.1 0-0.1-0.1-0.4-0.1-0.4 0-0.5 0.1-0.3 0.1zm-13.6 15.3l-0.5 0.5 0.6-0.5c0.5-0.4 0.6-0.6 0.5-0.6 0 0-0.3 0.3-0.6 0.6zm-260.1 12.7c0.3 0.1 0.8 0.1 1.1 0 0.3 0 0.1 0-0.5 0-0.6 0-0.9 0-0.6 0zm102.5 19.4c0.8 0 2 0 2.8 0 0.7-0.1 0.1-0.1-1.4-0.1-1.5 0-2.1 0-1.4 0.1zm223.6 6.7l-0.4 0.6 0.5-0.5c0.5-0.5 0.6-0.6 0.5-0.6 0 0-0.3 0.2-0.6 0.5zm-192.3 10.1c0 1.1 0 1.6 0.1 1 0-0.6 0-1.6 0-2.2-0.1-0.6-0.1 0-0.1 1.2zm-126.6 3.2c0.4 0.5 0.8 0.8 0.9 0.8 0 0-0.3-0.3-0.8-0.8-0.4-0.5-0.8-0.8-0.9-0.8 0 0 0.3 0.3 0.8 0.8zm50.4 1.8c0 0.4 0 0.6 0.1 0.4 0-0.2 0-0.5 0-0.7-0.1-0.2-0.1-0.1-0.1 0.3zm72.4-0.2c0.2 0.1 0.6 0.1 0.8 0 0.2 0 0-0.1-0.4-0.1-0.4 0-0.6 0.1-0.4 0.1zm-72.4 4.2c0 0.4 0 0.6 0.1 0.3 0-0.2 0-0.6 0-0.8-0.1-0.2-0.1 0-0.1 0.5zm12.5 0.9c0 0.7 0.1 0.9 0.1 0.6 0-0.4 0-0.9 0-1.3 0-0.3-0.1 0-0.1 0.7zm-24.6 9.1c0.2 0 0.6 0 0.8 0 0.2-0.1 0-0.1-0.4-0.1-0.4 0-0.6 0-0.4 0.1zm4.4 0.2c0.4 0 1.2 0 1.7 0 0.5-0.1 0.1-0.1-0.9-0.1-0.9 0-1.3 0-0.8 0.1zm125.2 18.1c0 0 0.2 0.2 0.5 0.5l0.6 0.5-0.5-0.6c-0.5-0.5-0.6-0.6-0.6-0.4z"/><path fill-rule="evenodd" class="d" d="m256.4 36.3c0.3 0 0.9 0 1.2 0 0.4 0 0.1-0.1-0.6-0.1-0.7 0-1 0.1-0.6 0.1zm-77.5 34c0.4 0 1.1 0 1.6 0 0.4 0 0-0.1-0.8-0.1-0.9 0-1.3 0.1-0.8 0.1zm77.6 5.6c0.3 0.3 0.6 0.6 0.6 0.6 0.1 0-0.1-0.3-0.4-0.6-0.3-0.3-0.6-0.6-0.7-0.6 0 0 0.2 0.3 0.5 0.6zm53.2 2c0 0.4 0 0.5 0.1 0.3 0-0.2 0-0.5 0-0.7-0.1-0.1-0.1 0.1-0.1 0.4zm8.3 1.2c0.2 0.1 0.5 0.1 0.7 0 0.2 0 0-0.1-0.4-0.1-0.4 0-0.5 0.1-0.3 0.1zm-69 2.6c0 0.3 0.1 0.4 0.1 0.3 0.1-0.2 0.1-0.5 0-0.6 0-0.2-0.1-0.1-0.1 0.3zm0 1.5c0 0.4 0.1 0.5 0.1 0.3 0.1-0.2 0.1-0.5 0-0.7 0-0.2-0.1 0-0.1 0.4zm-69.3 0.6c0 0.4 0 0.6 0.1 0.4 0-0.2 0-0.5 0-0.7-0.1-0.2-0.1-0.1-0.1 0.3zm0 5.9c0 0.4 0 0.5 0.1 0.3 0-0.2 0-0.5 0-0.7-0.1-0.2-0.1 0-0.1 0.4zm85.2 11.4c0 0.7 0 1 0.1 0.6 0-0.4 0-1 0-1.3-0.1-0.4-0.1-0.1-0.1 0.7zm-34.9 16.7c0.2 0 0.5 0 0.6 0 0.2-0.1 0.1-0.1-0.3-0.1-0.3 0-0.4 0-0.3 0.1zm94 30.6c0.3 0.3 0.6 0.6 0.6 0.6 0.1 0-0.1-0.3-0.4-0.6-0.3-0.3-0.6-0.6-0.7-0.6 0 0 0.2 0.3 0.5 0.6zm2.2 6.8c0 1.8 0.1 2.6 0.1 1.7 0-1 0-2.5 0-3.4 0-1-0.1-0.2-0.1 1.7zm58.2-0.4c0 0.4 0 0.5 0 0.3 0.1-0.1 0.1-0.4 0-0.6 0-0.1 0 0 0 0.3zm-75.6 1.7c0.3 0 0.7 0 1 0 0.2-0.1 0-0.1-0.5-0.1-0.6 0-0.8 0-0.5 0.1zm14 2.3c0.2 0 0.5 0 0.7 0 0.2-0.1 0.1-0.1-0.3-0.1-0.4 0-0.6 0-0.4 0.1zm-283.9 14.1c0.1 0.1 0.4 0.1 0.6 0 0.1 0 0 0-0.3 0-0.4 0-0.5 0-0.3 0zm4.1 0c0.2 0.1 0.5 0.1 0.6 0 0.2 0 0.1 0-0.3 0-0.3 0-0.4 0-0.3 0zm97.4 8.2c0.6 0.1 1.6 0.1 2.1 0 0.6 0 0.1 0-1.1 0-1.2 0-1.6 0-1 0zm151.1 2.6c0 0.3 0.1 0.4 0.1 0.3 0.1-0.2 0.1-0.5 0-0.6 0-0.2-0.1-0.1-0.1 0.3zm0 6.3c0 0.3 0.1 0.5 0.1 0.3 0.1-0.2 0.1-0.4 0-0.6 0-0.2-0.1 0-0.1 0.3zm-133.7 6.2c0.7 0.7 0.9 0.9 0.9 0.8 0-0.1-0.4-0.4-0.8-0.8l-0.8-0.8zm141.2 11.4c0.5 0.5 0.9 0.9 0.9 0.9 0.1 0-0.3-0.4-0.8-0.9-0.5-0.5-0.9-0.9-1-0.9 0 0 0.4 0.4 0.9 0.9zm-132.9 3.1c0 0.1 0.3 0.3 0.6 0.6l0.5 0.5-0.5-0.6c-0.4-0.5-0.6-0.6-0.6-0.5zm8.1 1.6c0 0.4 0 0.5 0 0.3 0.1-0.1 0.1-0.4 0-0.5 0-0.2 0-0.1 0 0.2zm117.3 3.4c0.6 0.5 1.1 1 1.1 1 0.1 0-0.3-0.5-0.9-1-0.5-0.6-1-1-1.1-1 0 0 0.4 0.4 0.9 1zm-193.3 0.6c0 0.6 0 0.9 0 0.6 0.1-0.3 0.1-0.8 0-1.1 0-0.3 0-0.1 0 0.5zm-10.3 12.2c0.3 0 0.8 0 1 0 0.3-0.1 0-0.1-0.5-0.1-0.6 0-0.8 0-0.5 0.1zm5.8 0c0.2 0 0.6 0 0.8 0 0.2-0.1 0-0.1-0.5-0.1-0.4 0-0.6 0-0.3 0.1zm32.7 23.7c0.4 0.4 0.8 0.8 0.9 0.8 0 0-0.3-0.4-0.8-0.8-0.4-0.5-0.8-0.9-0.9-0.9 0 0 0.3 0.4 0.8 0.9zm27.5 10.6c0.4 0 1 0 1.4 0 0.3 0 0-0.1-0.8-0.1-0.7 0-1 0.1-0.6 0.1z"/><path fill-rule="evenodd" class="e" d="m181.4 70.3c0.1 0 0.4 0 0.6 0 0.1-0.1 0-0.1-0.3-0.1-0.4 0-0.5 0-0.3 0.1z"/></svg>
